HIERARCHY
ROOT Hips
{
	OFFSET 0.0000 0.0000 0.0000
	CHANNELS 6 Xposition Yposition Zposition Zrotation Xrotation Yrotation
	JOINT Ab
	{
		OFFSET -0.0000 8.1305 -0.0000
		CHANNELS 3 Zrotation Xrotation Yrotation
		JOINT Chest
		{
			OFFSET -0.0000 26.2902 -0.0000
			CHANNELS 3 Zrotation Xrotation Yrotation
			JOINT Neck
			{
				OFFSET -0.0000 26.2902 0.0000
				CHANNELS 3 Zrotation Xrotation Yrotation
				JOINT Head
				{
					OFFSET -0.0000 10.8167 0.0000
					CHANNELS 3 Zrotation Xrotation Yrotation
					End Site
					{
						OFFSET -0.0000 16.7167 0.0000
					}
				}
			}
			JOINT LeftCollar
			{
				OFFSET -0.0000 26.2902 0.0000
				CHANNELS 3 Zrotation Xrotation Yrotation
				JOINT LeftShoulder
				{
					OFFSET 19.6667 -0.0000 0.0000
					CHANNELS 3 Zrotation Xrotation Yrotation
					JOINT LeftElbow
					{
						OFFSET 27.2190 0.0000 0.0000
						CHANNELS 3 Zrotation Xrotation Yrotation
						JOINT LeftWrist
						{
							OFFSET 30.7431 0.0000 0.0000
							CHANNELS 3 Zrotation Xrotation Yrotation
							End Site
							{
								OFFSET 0.0000 -14.7500 0.0000
							}
						}
					}
				}
			}
			JOINT RightCollar
			{
				OFFSET -0.0000 26.2902 0.0000
				CHANNELS 3 Zrotation Xrotation Yrotation
				JOINT RightShoulder
				{
					OFFSET -19.6667 0.0000 0.0000
					CHANNELS 3 Zrotation Xrotation Yrotation
					JOINT RightElbow
					{
						OFFSET -27.2190 0.0000 0.0000
						CHANNELS 3 Zrotation Xrotation Yrotation
						JOINT RightWrist
						{
							OFFSET -30.7431 0.0000 0.0000
							CHANNELS 3 Zrotation Xrotation Yrotation
							End Site
							{
								OFFSET -0.0000 -14.7500 0.0000
							}
						}
					}
				}
			}
		}
	}
	JOINT LeftHip
	{
		OFFSET 11.8000 0.0000 0.0000
		CHANNELS 3 Zrotation Xrotation Yrotation
		JOINT LeftKnee
		{
			OFFSET -0.0000 -39.7832 0.0000
			CHANNELS 3 Zrotation Xrotation Yrotation
			JOINT LeftAnkle
			{
				OFFSET -0.0000 -41.7317 0.0000
				CHANNELS 3 Zrotation Xrotation Yrotation
				End Site
				{
					OFFSET -0.0000 -4.9167 16.7167
				}
			}
		}
	}
	JOINT RightHip
	{
		OFFSET -11.8000 0.0000 0.0000
		CHANNELS 3 Zrotation Xrotation Yrotation
		JOINT RightKnee
		{
			OFFSET -0.0000 -39.7832 0.0000
			CHANNELS 3 Zrotation Xrotation Yrotation
			JOINT RightAnkle
			{
				OFFSET -0.0000 -41.7317 0.0000
				CHANNELS 3 Zrotation Xrotation Yrotation
				End Site
				{
					OFFSET -0.0000 -4.9167 16.7167
				}
			}
		}
	}
}
MOTION
Frames: 9
Frame Time: 0.010000
-9.3100 90.8987 85.0279 359.3288 356.5924 176.6700 356.4111 351.3632 359.0737 2.2395 14.1197 359.0688 357.1285 356.4029 2.8379 354.9278 9.9969 3.3598 337.7248 357.2739 13.8177 338.1608 54.6288 322.7191 15.0694 353.4908 313.6783 89.7695 356.3903 350.7716 27.3724 356.2489 344.7060 44.4199 44.0368 2.1996 338.4733 353.2542 34.4086 271.4968 355.6119 6.5569 354.8611 0.4166 2.9227 355.7467 12.2142 358.2851 359.5047 347.2656 18.9260 353.3295 340.3869 0.4900 16.6990 43.0755 4.4081 355.9365 336.6820 321.3590 
-9.3001 90.8642 84.5004 359.3627 356.5966 176.7506 356.4972 351.4146 359.0310 2.1931 14.0986 359.0248 357.1232 356.4255 2.8171 355.0234 10.0338 3.3193 337.7906 357.2770 13.8116 338.2472 54.6614 322.5222 15.2303 353.4100 313.5879 89.8332 356.3792 350.8924 27.4560 356.2499 344.7461 44.4030 43.8741 2.0792 338.4896 353.2529 34.4345 271.4905 355.6423 6.5880 354.9009 0.9397 2.9680 355.7437 11.9242 358.1514 359.9327 347.2566 18.8805 353.3736 339.7820 0.4785 16.1749 41.6334 4.7264 356.1181 336.7058 321.2621 
-9.2970 90.8222 83.9702 359.3745 356.5808 176.8153 356.5433 351.4085 359.0113 2.1916 14.1436 358.9978 357.1418 356.4576 2.8173 355.0414 10.0031 3.3084 337.7876 357.2575 13.8363 338.4444 54.6467 322.2777 15.3361 353.3575 313.4787 89.8060 356.3863 350.9707 27.4895 356.2652 344.7714 44.3688 43.8316 2.0837 338.4448 353.2463 34.3764 271.4743 355.6286 6.5035 354.9094 1.4593 2.9903 355.7374 11.6051 357.9837 0.1908 347.2715 18.9716 353.3854 339.1897 0.4843 15.6648 40.1704 5.0538 356.0027 336.7924 321.2170 
-9.2845 90.7751 83.4362 359.3789 356.5676 176.8865 356.5543 351.4354 358.9964 2.2243 14.1159 358.9786 357.1959 356.6041 2.7942 355.0335 9.8809 3.3016 337.7385 357.2570 13.8019 338.5628 54.6074 322.1970 15.3278 353.3494 313.3517 90.0631 356.4495 351.1407 27.5166 356.2617 344.7747 44.4017 43.8097 2.0560 338.3601 353.2419 34.2502 271.5681 355.5182 6.4263 354.9248 1.9814 3.0472 355.7251 11.2764 357.9347 0.4369 347.3159 18.7971 353.3925 338.6461 0.4925 15.2612 38.5611 5.0403 355.9289 336.8946 321.3597 
-9.2711 90.7226 82.9003 359.3728 356.5592 176.9595 356.4592 351.4032 359.0340 2.4157 14.2966 359.0013 357.2614 356.2380 2.7713 354.9698 10.2193 3.3051 337.6972 357.2428 13.8412 338.9217 54.6067 321.7000 15.4352 353.2899 313.3645 90.0732 356.3662 351.2181 27.4035 356.2536 344.6755 44.3947 43.8636 2.2560 338.2187 353.2113 34.0950 271.5178 355.5599 6.2377 354.9232 2.4991 3.1096 355.7233 10.9729 357.9249 0.8639 347.3922 18.6433 353.4047 338.0835 0.5572 14.9125 37.0823 4.8884 356.2528 336.8383 321.7530 
-9.2570 90.6605 82.3601 359.3585 356.5393 177.0365 356.4397 351.4102 359.0343 2.4830 14.2902 358.9873 357.3311 356.4001 2.7060 354.9212 10.0561 3.2228 337.7090 357.2588 13.7870 338.9650 54.7369 321.5112 15.6119 353.2161 313.5025 89.9484 356.2715 351.2527 27.4038 356.2519 344.6623 44.5298 43.8329 2.1585 338.1817 353.2281 33.9968 271.4769 355.6314 6.2344 354.9138 3.0182 3.1418 355.7045 10.6479 357.9160 1.2356 347.4276 18.5181 353.4263 337.6028 0.4068 14.2640 35.6357 5.6757 356.5304 336.8477 321.6126 
-9.2428 90.5932 81.8165 359.3395 356.5292 177.1465 356.4362 351.4009 359.0198 2.5393 14.3550 358.9572 357.4174 356.3726 2.6782 354.8269 10.0900 3.2072 337.6804 357.2752 13.7382 339.0280 54.6985 321.4105 15.6430 353.2295 313.5103 89.9454 356.2965 351.3225 27.4178 356.2659 344.6849 44.5530 43.7642 2.1381 338.1562 353.2515 33.9053 271.4930 355.6429 6.1798 354.8986 3.5435 3.1068 355.6970 10.3290 357.8770 1.1565 347.3670 18.4691 353.3823 337.2029 0.4309 13.9468 33.8639 5.8779 356.6294 337.0707 321.4967 
-9.2346 90.5211 81.2703 359.2914 356.4829 177.2325 356.4184 351.3447 359.0260 2.5876 14.4426 358.9674 357.4504 356.2933 2.6707 354.7936 10.1783 3.2058 337.6391 357.2855 13.6829 339.0275 54.6436 321.3858 15.6598 353.2299 313.5344 89.9910 356.2700 351.3664 27.4252 356.2428 344.6749 44.5134 43.7606 2.2103 338.1177 353.2723 33.7755 271.5132 355.6472 6.1916 354.8510 4.0252 3.0845 355.6880 10.0420 357.9651 0.7043 347.2841 18.3011 353.3445 336.7797 0.4813 13.6233 32.1051 6.1006 356.7817 337.1663 321.5415 
-9.2178 90.4422 80.7176 359.2518 356.4481 177.3356 356.4197 351.2946 359.0200 2.6291 14.5715 358.9388 357.4178 356.1469 2.6545 354.8572 10.2238 3.1885 337.6554 357.2869 13.7070 339.0767 54.6288 321.2129 15.7107 353.2284 313.6364 90.0507 356.2344 351.4072 27.3932 356.2369 344.6345 44.4807 43.8195 2.3621 338.0970 353.2883 33.6316 271.5415 355.6764 6.2599 354.8205 4.5158 3.1013 355.6928 9.7714 357.8780 0.5618 347.2133 18.2629 353.3423 336.4518 0.6847 13.3407 30.2779 6.2674 357.0368 337.3187 321.6589 
